<svg width="40" height="41" viewBox="0 0 40 41" fill="none" xmlns="http://www.w3.org/2000/svg">
<rect y="0.5" width="40" height="40" rx="8" fill="#FFF8E6"/>
<path d="M29 30.5H11C10.59 30.5 10.25 30.16 10.25 29.75C10.25 29.34 10.59 29 11 29H29C29.41 29 29.75 29.34 29.75 29.75C29.75 30.16 29.41 30.5 29 30.5Z" fill="#EFB008"/>
<path d="M27.0201 11.982C25.0801 10.042 23.1801 9.99199 21.1901 11.982L19.9801 13.192C19.8801 13.292 19.8401 13.452 19.8801 13.592C20.2625 14.9044 20.9698 16.0991 21.9364 17.0657C22.903 18.0323 24.0977 18.7395 25.4101 19.122C25.4809 19.1452 25.5569 19.1481 25.6293 19.1305C25.7018 19.1128 25.7678 19.0752 25.8201 19.022L27.0201 17.812C28.0101 16.832 28.4901 15.882 28.4901 14.922C28.5001 13.932 28.0201 12.972 27.0201 11.982Z" fill="#EFB008"/>
<path d="M23.6101 20.03C23.3201 19.89 23.0401 19.75 22.7701 19.59C22.5508 19.4593 22.3372 19.3192 22.1301 19.17C21.9601 19.06 21.7601 18.9 21.5701 18.74C21.5089 18.6954 21.452 18.6451 21.4001 18.59C21.0701 18.31 20.7001 17.95 20.3701 17.55C20.3401 17.53 20.2901 17.46 20.2201 17.37C20.1201 17.25 19.9501 17.05 19.8001 16.82C19.6575 16.6319 19.5273 16.4348 19.4101 16.23C19.2501 15.96 19.1101 15.69 18.9701 15.41C18.9493 15.3652 18.9289 15.3202 18.9091 15.275C18.7611 14.942 18.3261 14.845 18.0691 15.102L12.3401 20.831C12.2101 20.961 12.0901 21.211 12.0601 21.381L11.5201 25.211C11.4201 25.891 11.6101 26.531 12.0301 26.961C12.3901 27.311 12.8901 27.501 13.4301 27.501C13.5501 27.501 13.6701 27.491 13.7901 27.471L17.6301 26.931C17.8101 26.901 18.0601 26.781 18.1801 26.651L23.9021 20.93C24.1621 20.67 24.0631 20.225 23.7261 20.08C23.6874 20.0634 23.6487 20.0467 23.6101 20.03Z" fill="#EFB008"/>
</svg>
