<svg width="136" height="82" viewBox="0 0 136 82" fill="none" xmlns="http://www.w3.org/2000/svg">
<path d="M46.0045 58.9715V47.6599C46.0045 41.8199 41.2378 37.0852 35.3994 37.0852C32.4248 37.0852 29.7274 38.3195 27.7874 40.2908C25.8659 38.3011 23.1685 37.0852 20.1754 37.0852C14.3371 37.0852 9.57031 41.8383 9.57031 47.6599V58.9899C9.57031 60.0216 9.75507 60.9243 10.0322 61.3296C10.217 61.6981 11.2886 61.9929 12.5819 61.9929C13.8567 61.9929 14.9283 61.7165 15.1315 61.3481C15.4087 60.9612 15.6119 60.04 15.6119 58.9715V47.6599C15.6119 45.136 17.6627 43.1095 20.1754 43.1095C22.6881 43.1095 24.7389 45.1544 24.7389 47.6599V58.9715C24.7389 60.0216 24.9237 60.9059 25.2008 61.3112C25.3856 61.6797 26.4756 61.9744 27.7874 61.9744C29.0807 61.9744 30.1338 61.6981 30.3555 61.3296C30.6327 60.9428 30.8359 60.0216 30.8359 58.9531V47.6415C30.8359 45.1176 32.8867 43.091 35.3994 43.091C37.9121 43.091 39.9629 45.136 39.9629 47.6415V58.9715C39.9629 60.0032 40.1477 60.9059 40.4248 61.3112C40.6096 61.6797 41.6812 61.9744 42.9745 61.9744C44.2493 61.9744 45.3209 61.6981 45.5241 61.3296C45.8013 60.9428 46.0045 60.04 46.0045 58.9715Z" fill="#E6007E"/>
<path d="M81.6813 56.3923C81.2933 56.116 80.4065 55.9318 79.3534 55.9133H77.0254C74.5127 55.9133 72.4619 53.8684 72.4619 51.3629V31.6136C72.4619 30.582 72.2771 29.6792 72 29.2555C71.8153 28.8871 70.7437 28.5923 69.4319 28.5923C68.1571 28.5923 67.0855 28.8686 66.8822 29.2371C66.6051 29.6424 66.4019 30.5451 66.4019 31.5952V51.3629C66.4019 57.1845 71.1686 61.9376 77.0069 61.9376H79.3349C80.3695 61.9376 81.2379 61.7534 81.6444 61.477C82.0139 61.2928 82.3095 60.2243 82.3095 58.9347C82.328 57.6635 82.0323 56.6134 81.6813 56.3923Z" fill="#E6007E"/>
<path d="M64.5358 56.3923C64.1478 56.116 63.2425 55.9317 62.2078 55.9133H59.8614C57.3487 55.9133 55.2979 53.8684 55.2979 51.3629V43.7174H60.1016C61.1547 43.7174 62.0416 43.5332 62.4665 43.2568C62.836 43.0726 63.1316 42.0041 63.1316 40.7145C63.1316 39.4433 62.8545 38.3748 62.485 38.1721C62.097 37.8958 61.1732 37.6932 60.1016 37.6932H55.2979V31.5952C55.2979 30.5635 55.1132 29.6608 54.836 29.2371C54.6513 28.8686 53.5797 28.5739 52.2864 28.5739C51.0115 28.5739 49.94 28.8502 49.7367 29.2187C49.4596 29.624 49.2563 30.5267 49.2563 31.5768V51.3445C49.2563 57.1661 54.0046 61.9192 59.8614 61.9192H62.1894C63.224 61.9192 64.0924 61.7349 64.4988 61.4586C64.8684 61.2744 65.164 60.2058 65.164 58.9162C65.1824 57.6635 64.9053 56.6134 64.5358 56.3923Z" fill="#E6007E"/>
<path d="M9.73682 68.9751H10.7715L12.4343 71.6833L14.0971 68.9751H15.1133V74.7046H14.1525V70.5963L12.4343 73.3045H12.3973L10.6791 70.6147V74.7046H9.73682V68.9751Z" fill="#6D6E70"/>
<path d="M16.5356 72.2728V68.9751H17.4964V72.2359C17.4964 73.3045 18.0137 73.8756 18.8821 73.8756C19.7319 73.8756 20.2493 73.3413 20.2493 72.2728V68.9751H21.21V72.2359C21.21 73.9493 20.2862 74.8151 18.8636 74.8151C17.441 74.7967 16.5356 73.9308 16.5356 72.2728Z" fill="#6D6E70"/>
<path d="M24.0922 68.9382H24.979L27.3809 74.723H26.3647L25.8104 73.3413H23.2238L22.6511 74.723H21.6719L24.0922 68.9382ZM25.4779 72.4386L24.5356 70.1357L23.5934 72.4386H25.4779Z" fill="#6D6E70"/>
<path d="M28.2495 68.9751H29.1363L32.074 72.936V68.9751H33.0163V74.7046H32.2033L29.1918 70.6332V74.7046H28.2495V68.9751Z" fill="#6D6E70"/>
<path d="M34.0874 71.8491C34.0874 70.2279 35.2699 68.8646 36.9142 68.8646C37.8749 68.8646 38.4662 69.141 39.0204 69.6384L38.4107 70.3937C37.9858 70.0253 37.5793 69.7858 36.8772 69.7858C35.8611 69.7858 35.1036 70.7069 35.1036 71.8123V71.8307C35.1036 73.0098 35.8426 73.8756 36.9696 73.8756C37.4869 73.8756 37.9488 73.7098 38.2999 73.4519V72.365H36.8957V71.4991H39.2237V73.9125C38.6879 74.3915 37.9119 74.8152 36.9327 74.8152C35.2144 74.8152 34.0874 73.5256 34.0874 71.8491Z" fill="#6D6E70"/>
<path d="M44.434 69.8962H42.6973V68.9751H47.1314V69.8962H45.3947V74.7046H44.434V69.8962Z" fill="#6D6E70"/>
<path d="M48.1475 68.9751H49.1082V71.3516H51.7318V68.9751H52.6925V74.7046H51.7318V72.2912H49.1082V74.7046H48.1475V68.9751Z" fill="#6D6E70"/>
<path d="M56.0366 68.9382H56.9235L59.3253 74.723H58.3091L57.7549 73.3413H55.1683L54.614 74.723H53.6348L56.0366 68.9382ZM57.4223 72.4386L56.48 70.1357L55.5378 72.4386H57.4223Z" fill="#6D6E70"/>
<path d="M61.284 68.9751H60.3232V74.7046H61.284V68.9751Z" fill="#6D6E70"/>
<path d="M65.5332 68.9382H66.4939V73.765H69.3762V74.6862H65.5332V68.9382Z" fill="#6D6E70"/>
<path d="M71.3904 68.9382H70.4297V74.6677H71.3904V68.9382Z" fill="#6D6E70"/>
<path d="M72.8496 68.9382H76.9328V69.8594H73.8104V71.4253H76.5632V72.3465H73.8104V74.6862H72.8496V68.9382Z" fill="#6D6E70"/>
<path d="M77.9858 68.9382H82.032V69.8409H78.9466V71.3332H81.681V72.2359H78.9466V73.7834H82.069V74.6862H77.9858V68.9382Z" fill="#6D6E70"/>
<path d="M104.018 7.11121C94.836 7.14805 87.2424 9.17456 85.7274 11.8274C83.6951 14.7014 82.2725 21.3521 82.2725 29.1081C82.2725 36.6983 83.6397 43.2568 85.6166 46.2229C86.9653 48.9679 94.799 51.0681 104.259 51.0681C113.57 51.0681 121.293 49.0231 122.827 46.3518C124.859 43.4779 126.282 36.8272 126.282 29.0712C126.282 21.4626 124.914 14.9225 122.938 11.9564C121.607 9.24825 113.921 7.14805 104.591 7.11121H104.018Z" fill="url(#paint0_linear_7765_663)"/>
<path d="M94.7437 21.702V19.4729L94.2264 18.9755L93.7091 19.4729L93.1918 18.9755L92.6745 19.4729V20.0808L91.9539 19.8045L89.1641 20.7256V21.702H94.7437Z" fill="white"/>
<path d="M88.3328 28.85L87.9263 28.4632L87.409 28.9606L87.2242 28.7763L87.8155 28.1868V23.3416L86.7993 22.3099L85.7646 23.3416V28.85L86.282 29.3843H87.8339L88.3328 28.85Z" fill="white"/>
<path d="M93.7278 22.3099L92.7116 23.3416V27.4499L91.2151 26.0682V23.3416L90.1989 22.3099L88.6654 23.8575L89.1827 24.3549L89.7001 23.839L89.8848 24.0417L89.1827 24.7418V26.105H88.9056L88.2959 27.192L88.9056 28.2789H89.1827V28.85L89.7185 29.3843H90.6793L91.2151 28.85V28.2605L92.9703 29.3843H94.2266L94.7439 28.85V23.3416L93.7278 22.3099Z" fill="white"/>
<path d="M98.1805 22.2916L95.3906 23.3417V24.2444L96.3883 24.6129L97.423 24.2629L98.2174 23.747L98.9749 24.2629V27.3947L98.2174 27.9106L97.423 27.3947V27.2289L96.6839 26.4736L96.8687 26.2894L97.423 26.8421L97.9588 26.3262L96.4068 24.7971L95.3906 25.8288V28.2422L96.5177 29.3844H99.8987L101.026 28.2422V23.3417L98.1805 22.2916Z" fill="white"/>
<path d="M115.418 22.3099L112.906 23.7653V23.3416L111.889 22.3099L110.337 23.8575L110.855 24.3549L111.372 23.839L111.557 24.0233L110.855 24.7233V28.85L111.372 29.3843H112.388L112.906 28.85V26.1235L114.402 25.2576V28.85L114.919 29.3843H115.899L116.434 28.85V23.3416L115.418 22.3099Z" fill="white"/>
<path d="M121.626 22.3468L120.61 23.3416V27.3025L119.871 27.9105L119.113 27.321V26.6762L120.074 25.7182L118.356 23.9864L118.541 23.8022L119.132 24.3733L119.649 23.8759L118.097 22.3468L117.081 23.3601V25.1102L117.654 25.6629L117.081 26.2524V28.279L118.19 29.3843H121.552L122.642 28.2974V23.3416L121.626 22.3468Z" fill="white"/>
<path d="M106.199 22.3099L104.647 23.8575L105.183 24.3549L105.7 23.839L105.885 24.0417L105.183 24.7602V27.3025L104.425 27.9105L103.668 27.3025V26.1972L102.67 25.1839L101.635 26.1972V28.2789L102.744 29.3843H106.125L107.215 28.2974V23.3416L106.199 22.3099Z" fill="white"/>
<path d="M110.005 28.4632L109.487 28.9791L109.284 28.7764L109.912 28.1684V21.0757L108.49 19.6571H107.51L106.993 20.1729L106.494 19.6571H105.497L104.462 20.6704L105.497 21.702H107.861V28.8501L108.379 29.3844H109.894L110.411 28.8501L110.005 28.4632Z" fill="white"/>
<path d="M97.4595 33.898V34.598L98.1061 35.2428L98.7528 34.6165V33.8795L98.1061 33.2532L97.4595 33.898Z" fill="url(#paint1_linear_7765_663)"/>
<path d="M97.4595 36.1824V36.9009L98.1061 37.5273L98.7528 36.9009V36.1824L98.1061 35.5376L97.4595 36.1824Z" fill="url(#paint2_linear_7765_663)"/>
<path d="M99.2148 33.898V37.343L99.5289 37.6746H100.139L100.471 37.343V34.5243L100.952 34.1927L101.413 34.5243V37.343L101.764 37.6746H102.356L102.688 37.343V33.898L100.952 33.2347L99.2148 33.898Z" fill="url(#paint3_linear_7765_663)"/>
<path d="M91.8246 33.2901V36.2746L91.3443 36.6062L90.8824 36.2746V33.898L90.2542 33.2532L89.2935 34.2112L89.626 34.5244L89.9401 34.1928L90.0694 34.3402L89.626 34.7823V36.9931L90.3096 37.6747H92.3789L93.081 36.9746V33.2901L92.4713 32.6453L91.8246 33.2901Z" fill="url(#paint4_linear_7765_663)"/>
<path d="M93.543 33.898V35.7771V35.7955L94.2266 36.4772H95.7231V36.5324L96.1111 36.9193L95.9818 37.0483L95.7231 36.7719L95.3905 37.1035L95.9633 37.6747H96.6654L96.9979 37.343V35.206H94.8178V34.4322L96.3698 35.0218L96.9979 34.6349V33.8795L95.2797 33.2532L93.543 33.898Z" fill="url(#paint5_linear_7765_663)"/>
<path d="M105.46 33.8795V35.6481L104.518 36.2377V33.9164L103.889 33.2347L102.91 34.2112L103.243 34.5428L103.52 34.2664L103.631 34.3954L103.243 34.7823V37.4167L103.483 37.6746H104.481L105.46 37.0298V37.343L105.792 37.6746H106.402L106.735 37.343V36.993H106.901L107.289 36.3114L106.901 35.6297H106.735V33.8795L106.106 33.2347L105.46 33.8795Z" fill="url(#paint6_linear_7765_663)"/>
<path d="M100.545 31.7242V32.4795L100.933 32.8664H103.168L103.723 32.4242L103.132 31.9637H101.931L101.524 32.369L101.395 32.24L101.672 31.9637V31.7242L101.118 31.3373L100.545 31.7242Z" fill="url(#paint7_linear_7765_663)"/>
<path d="M109.857 31.6135V31.853L109.358 31.6872L107.603 32.2583V32.8663H111.15V31.6135L110.503 30.9503L109.857 31.6135Z" fill="#7FBD80"/>
<path d="M111.63 32.2584V32.8663H115.141V32.2768L113.386 31.7057L111.63 32.2584Z" fill="#7FBD80"/>
<path d="M109.875 33.898V34.3401L109.265 34.9849L109.875 35.6113V36.2561L109.376 36.5877L108.877 36.2561V33.898L108.249 33.2347L107.27 34.2112L107.603 34.5428L107.88 34.2664L108.009 34.3954L107.603 34.7823V36.9746L108.305 37.6746H110.466L111.15 36.993V35.4271L110.688 34.9849L111.15 34.5243V33.898L110.522 33.2347L109.875 33.898Z" fill="url(#paint8_linear_7765_663)"/>
<path d="M115.603 33.898V37.4167L115.861 37.6746H116.6L117.69 36.5877V35.8324L117.358 35.4823L117.025 35.8324V36.0166L117.228 36.2192L117.099 36.3298L116.877 36.1271V36.1087V36.1271V34.5243L117.358 34.8375L117.838 34.5243V37.4167L118.078 37.6746H118.854L119.094 37.4167V33.898L118.448 33.2532L117.358 33.898L116.286 33.2347L115.603 33.898Z" fill="url(#paint9_linear_7765_663)"/>
<path d="M111.63 33.898V35.3718L112.24 35.5929L112.905 35.3718V34.5243L113.386 34.1927L113.866 34.5243V36.8088L113.663 37.0114L113.533 36.8825L113.829 36.5877L113.386 36.2929L112.905 36.5693V37.4167L113.145 37.6746H114.457L115.141 36.993V33.898L113.386 33.2347L111.63 33.898Z" fill="url(#paint10_linear_7765_663)"/>
<defs>
<linearGradient id="paint0_linear_7765_663" x1="104.285" y1="7.3816" x2="104.285" y2="50.8504" gradientUnits="userSpaceOnUse">
<stop stop-color="#E6007E"/>
<stop offset="0.39" stop-color="#E5007C"/>
<stop offset="0.5557" stop-color="#E30175"/>
<stop offset="0.6789" stop-color="#DF0268"/>
<stop offset="0.7811" stop-color="#D90557"/>
<stop offset="0.8701" stop-color="#D10740"/>
<stop offset="0.9488" stop-color="#C80A24"/>
<stop offset="1" stop-color="#C00D0D"/>
</linearGradient>
<linearGradient id="paint1_linear_7765_663" x1="98.1062" y1="31.3123" x2="98.1062" y2="37.4648" gradientUnits="userSpaceOnUse">
<stop stop-color="#388FCA"/>
<stop offset="0.4072" stop-color="#388DC8"/>
<stop offset="0.5802" stop-color="#3786C2"/>
<stop offset="0.7088" stop-color="#3679B6"/>
<stop offset="0.8155" stop-color="#3468A6"/>
<stop offset="0.9078" stop-color="#315192"/>
<stop offset="0.9901" stop-color="#2E3579"/>
<stop offset="1" stop-color="#2E3175"/>
</linearGradient>
<linearGradient id="paint2_linear_7765_663" x1="98.1062" y1="31.3123" x2="98.1062" y2="37.4648" gradientUnits="userSpaceOnUse">
<stop stop-color="#388FCA"/>
<stop offset="0.4072" stop-color="#388DC8"/>
<stop offset="0.5802" stop-color="#3786C2"/>
<stop offset="0.7088" stop-color="#3679B6"/>
<stop offset="0.8155" stop-color="#3468A6"/>
<stop offset="0.9078" stop-color="#315192"/>
<stop offset="0.9901" stop-color="#2E3579"/>
<stop offset="1" stop-color="#2E3175"/>
</linearGradient>
<linearGradient id="paint3_linear_7765_663" x1="100.952" y1="31.3123" x2="100.952" y2="37.4648" gradientUnits="userSpaceOnUse">
<stop stop-color="#388FCA"/>
<stop offset="0.4072" stop-color="#388DC8"/>
<stop offset="0.5802" stop-color="#3786C2"/>
<stop offset="0.7088" stop-color="#3679B6"/>
<stop offset="0.8155" stop-color="#3468A6"/>
<stop offset="0.9078" stop-color="#315192"/>
<stop offset="0.9901" stop-color="#2E3579"/>
<stop offset="1" stop-color="#2E3175"/>
</linearGradient>
<linearGradient id="paint4_linear_7765_663" x1="91.1867" y1="31.3124" x2="91.1867" y2="37.4649" gradientUnits="userSpaceOnUse">
<stop stop-color="#388FCA"/>
<stop offset="0.4072" stop-color="#388DC8"/>
<stop offset="0.5802" stop-color="#3786C2"/>
<stop offset="0.7088" stop-color="#3679B6"/>
<stop offset="0.8155" stop-color="#3468A6"/>
<stop offset="0.9078" stop-color="#315192"/>
<stop offset="0.9901" stop-color="#2E3579"/>
<stop offset="1" stop-color="#2E3175"/>
</linearGradient>
<linearGradient id="paint5_linear_7765_663" x1="95.275" y1="31.3123" x2="95.275" y2="37.4648" gradientUnits="userSpaceOnUse">
<stop stop-color="#388FCA"/>
<stop offset="0.4072" stop-color="#388DC8"/>
<stop offset="0.5802" stop-color="#3786C2"/>
<stop offset="0.7088" stop-color="#3679B6"/>
<stop offset="0.8155" stop-color="#3468A6"/>
<stop offset="0.9078" stop-color="#315192"/>
<stop offset="0.9901" stop-color="#2E3579"/>
<stop offset="1" stop-color="#2E3175"/>
</linearGradient>
<linearGradient id="paint6_linear_7765_663" x1="105.097" y1="31.3123" x2="105.097" y2="37.4648" gradientUnits="userSpaceOnUse">
<stop stop-color="#388FCA"/>
<stop offset="0.4072" stop-color="#388DC8"/>
<stop offset="0.5802" stop-color="#3786C2"/>
<stop offset="0.7088" stop-color="#3679B6"/>
<stop offset="0.8155" stop-color="#3468A6"/>
<stop offset="0.9078" stop-color="#315192"/>
<stop offset="0.9901" stop-color="#2E3579"/>
<stop offset="1" stop-color="#2E3175"/>
</linearGradient>
<linearGradient id="paint7_linear_7765_663" x1="102.142" y1="31.3124" x2="102.142" y2="37.4649" gradientUnits="userSpaceOnUse">
<stop stop-color="#388FCA"/>
<stop offset="0.4072" stop-color="#388DC8"/>
<stop offset="0.5802" stop-color="#3786C2"/>
<stop offset="0.7088" stop-color="#3679B6"/>
<stop offset="0.8155" stop-color="#3468A6"/>
<stop offset="0.9078" stop-color="#315192"/>
<stop offset="0.9901" stop-color="#2E3579"/>
<stop offset="1" stop-color="#2E3175"/>
</linearGradient>
<linearGradient id="paint8_linear_7765_663" x1="109.216" y1="33.0917" x2="109.216" y2="37.6678" gradientUnits="userSpaceOnUse">
<stop stop-color="#7FBD80"/>
<stop offset="0.3795" stop-color="#7DBC7F"/>
<stop offset="0.5407" stop-color="#76B67B"/>
<stop offset="0.6606" stop-color="#69AD74"/>
<stop offset="0.76" stop-color="#58A06A"/>
<stop offset="0.8466" stop-color="#41905D"/>
<stop offset="0.9234" stop-color="#257C4D"/>
<stop offset="0.9932" stop-color="#04643A"/>
<stop offset="1" stop-color="#006138"/>
</linearGradient>
<linearGradient id="paint9_linear_7765_663" x1="117.355" y1="33.0917" x2="117.355" y2="37.6678" gradientUnits="userSpaceOnUse">
<stop stop-color="#7FBD80"/>
<stop offset="0.3795" stop-color="#7DBC7F"/>
<stop offset="0.5407" stop-color="#76B67B"/>
<stop offset="0.6606" stop-color="#69AD74"/>
<stop offset="0.76" stop-color="#58A06A"/>
<stop offset="0.8466" stop-color="#41905D"/>
<stop offset="0.9234" stop-color="#257C4D"/>
<stop offset="0.9932" stop-color="#04643A"/>
<stop offset="1" stop-color="#006138"/>
</linearGradient>
<linearGradient id="paint10_linear_7765_663" x1="113.386" y1="33.0917" x2="113.386" y2="37.6678" gradientUnits="userSpaceOnUse">
<stop stop-color="#7FBD80"/>
<stop offset="0.3795" stop-color="#7DBC7F"/>
<stop offset="0.5407" stop-color="#76B67B"/>
<stop offset="0.6606" stop-color="#69AD74"/>
<stop offset="0.76" stop-color="#58A06A"/>
<stop offset="0.8466" stop-color="#41905D"/>
<stop offset="0.9234" stop-color="#257C4D"/>
<stop offset="0.9932" stop-color="#04643A"/>
<stop offset="1" stop-color="#006138"/>
</linearGradient>
</defs>
</svg>
