<svg width="36" height="42" viewBox="0 0 36 42" fill="none" xmlns="http://www.w3.org/2000/svg">
<path fill-rule="evenodd" clip-rule="evenodd" d="M27 5.95602V6.41002C29.598 6.64759 32.1854 6.9892 34.756 7.43402C34.9501 7.46764 35.1357 7.53916 35.3021 7.64449C35.4686 7.74983 35.6127 7.88692 35.7261 8.04793C35.8396 8.20895 35.9203 8.39074 35.9635 8.58292C36.0067 8.77511 36.0116 8.97392 35.978 9.16802C35.9444 9.36211 35.8729 9.54768 35.7675 9.71414C35.6622 9.88059 35.5251 10.0247 35.3641 10.1381C35.2031 10.2516 35.0213 10.3323 34.8291 10.3755C34.6369 10.4187 34.4381 10.4236 34.244 10.39L33.826 10.32L31.816 36.46C31.7001 37.9672 31.0196 39.3751 29.9106 40.4022C28.8015 41.4293 27.3456 41.9999 25.834 42H10.168C8.6564 41.9999 7.20052 41.4293 6.09147 40.4022C4.98241 39.3751 4.3019 37.9672 4.18601 36.46L2.17401 10.32L1.75601 10.39C1.56192 10.4236 1.3631 10.4187 1.17092 10.3755C0.978736 10.3323 0.796945 10.2516 0.635928 10.1381C0.31074 9.90897 0.0899085 9.56001 0.022013 9.16802C-0.0458824 8.77603 0.0447204 8.37312 0.27389 8.04793C0.503059 7.72275 0.852023 7.50191 1.24401 7.43402C3.81455 6.98867 6.40198 6.64706 9.00001 6.41002V5.95602C9.00001 2.82802 11.426 0.156018 14.632 0.054018C16.8774 -0.0178432 19.1246 -0.0178432 21.37 0.054018C24.576 0.156018 27 2.82802 27 5.95602ZM14.728 3.05202C16.9095 2.98225 19.0926 2.98225 21.274 3.05202C22.78 3.10002 24 4.36802 24 5.95602V6.18202C20.0037 5.93931 15.9963 5.93931 12 6.18202V5.95602C12 4.36802 13.218 3.10002 14.728 3.05202ZM14.018 14.942C14.0104 14.745 13.9641 14.5515 13.8816 14.3724C13.7992 14.1933 13.6823 14.0322 13.5377 13.8983C13.393 13.7644 13.2234 13.6603 13.0385 13.592C12.8536 13.5237 12.657 13.4924 12.46 13.5C12.263 13.5076 12.0695 13.554 11.8904 13.6364C11.7113 13.7188 11.5502 13.8357 11.4163 13.9804C11.2824 14.125 11.1783 14.2947 11.11 14.4796C11.0417 14.6645 11.0104 14.861 11.018 15.058L11.712 33.058C11.7274 33.4556 11.9001 33.8307 12.1921 34.101C12.3367 34.2348 12.5062 34.3388 12.691 34.4071C12.8757 34.4754 13.0722 34.5066 13.269 34.499C13.4659 34.4914 13.6593 34.4451 13.8382 34.3627C14.0172 34.2804 14.1782 34.1635 14.312 34.019C14.4458 33.8744 14.5498 33.7049 14.6181 33.5201C14.6864 33.3353 14.7176 33.1389 14.71 32.942L14.018 14.942ZM24.978 15.058C24.9927 14.8573 24.9668 14.6556 24.9019 14.465C24.837 14.2745 24.7343 14.099 24.6002 13.9489C24.466 13.7988 24.303 13.6773 24.1208 13.5916C23.9387 13.5059 23.7412 13.4577 23.54 13.4499C23.3389 13.4421 23.1382 13.4749 22.95 13.5463C22.7618 13.6177 22.5899 13.7262 22.4445 13.8654C22.2991 14.0047 22.1832 14.1717 22.1038 14.3567C22.0243 14.5417 21.9829 14.7407 21.982 14.942L21.288 32.942C21.2726 33.3398 21.4159 33.7275 21.6863 34.0197C21.9568 34.3119 22.3322 34.4846 22.73 34.5C23.1278 34.5154 23.5155 34.3721 23.8077 34.1017C24.0998 33.8313 24.2726 33.4558 24.288 33.058L24.978 15.058Z" fill="#D83232"/>
</svg>
